<?xml version="1.0" encoding="UTF-8" standalone="no"?>
<!-- Generator: Adobe Illustrator 16.0.0, SVG Export Plug-In . SVG Version: 6.00 Build 0)  -->

<svg
   version="1.1"
   x="0px"
   y="0px"
   width="640"
   height="640"
   viewBox="0 0 640 640"
   enable-background="new 0 0 160 160"
   xml:space="preserve"
   id="svg270"
   sodipodi:docname="logo.svg"
   inkscape:version="1.2.2 (b0a8486541, 2022-12-01)"
   xmlns:inkscape="http://www.inkscape.org/namespaces/inkscape"
   xmlns:sodipodi="http://sodipodi.sourceforge.net/DTD/sodipodi-0.dtd"
   xmlns="http://www.w3.org/2000/svg"
   xmlns:svg="http://www.w3.org/2000/svg"><defs
   id="defs274" /><sodipodi:namedview
   id="namedview272"
   pagecolor="#ffffff"
   bordercolor="#000000"
   borderopacity="0.25"
   inkscape:showpageshadow="2"
   inkscape:pageopacity="0.0"
   inkscape:pagecheckerboard="0"
   inkscape:deskcolor="#d1d1d1"
   showgrid="false"
   showguides="true"
   inkscape:zoom="1.475"
   inkscape:cx="294.57627"
   inkscape:cy="519.32203"
   inkscape:window-width="1854"
   inkscape:window-height="1131"
   inkscape:window-x="66"
   inkscape:window-y="32"
   inkscape:window-maximized="1"
   inkscape:current-layer="svg270" />
<g
   id="Command"
   transform="matrix(4,0,0,4,0.002,0)">
	<path
   d="M 92.04,6.536 81.953,0.543 C 81.355,0.19 80.678,0 80,0 79.322,0 78.644,0.19 78.047,0.543 L 67.959,6.536 c -1.193,0.705 -1.953,2.033 -1.953,3.471 v 11.987 c 0,1.437 0.732,2.738 1.953,3.471 l 10.088,5.993 C 78.644,31.811 79.322,32 80,32 c 0.678,0 1.355,-0.189 1.953,-0.542 L 92.04,25.465 c 1.193,-0.705 1.953,-2.034 1.953,-3.471 V 9.979 c 0,-1.41 -0.732,-2.738 -1.953,-3.443 z m -7.81,18.712 0.027,0.868 c 0,0.108 -0.055,0.217 -0.136,0.271 l -0.515,0.299 c -0.082,0.054 -0.137,0 -0.163,-0.108 v -0.841 c -0.435,0.189 -0.868,0.217 -1.167,0.108 -0.054,-0.027 -0.08,-0.108 -0.054,-0.19 l 0.19,-0.786 c 0.026,-0.054 0.054,-0.136 0.081,-0.163 0.026,-0.026 0.026,-0.026 0.054,-0.026 0.027,-0.027 0.055,-0.027 0.082,0 0.298,0.108 0.705,0.054 1.057,-0.136 0.488,-0.244 0.787,-0.732 0.787,-1.221 0,-0.434 -0.244,-0.623 -0.813,-0.623 -0.732,0 -1.41,-0.136 -1.438,-1.221 0,-0.895 0.461,-1.817 1.193,-2.387 v -0.867 c 0,-0.109 0.054,-0.218 0.136,-0.271 l 0.488,-0.325 c 0.081,-0.055 0.135,0 0.162,0.108 v 0.867 c 0.354,-0.135 0.678,-0.189 0.977,-0.108 0.055,0.027 0.082,0.108 0.055,0.19 l -0.19,0.759 c -0.026,0.055 -0.054,0.108 -0.081,0.163 -0.027,0.027 -0.027,0.027 -0.055,0.027 -0.028,0 -0.054,0.026 -0.081,0 -0.136,-0.027 -0.435,-0.108 -0.922,0.162 -0.516,0.271 -0.705,0.705 -0.679,1.03 0,0.407 0.218,0.516 0.896,0.516 0.922,0.027 1.329,0.435 1.356,1.356 0.002,0.948 -0.487,1.925 -1.247,2.549 z m 5.289,-1.465 c 0,0.082 0,0.163 -0.081,0.19 l -2.549,1.546 c -0.055,0.026 -0.109,0 -0.109,-0.082 v -0.65 c 0,-0.082 0.055,-0.136 0.109,-0.163 l 2.521,-1.491 c 0.055,-0.027 0.108,0 0.108,0.081 v 0.569 z m 1.762,-14.725 -9.545,5.886 c -1.194,0.705 -2.062,1.464 -2.062,2.901 v 11.77 c 0,0.867 0.353,1.41 0.868,1.573 -0.162,0.026 -0.352,0.053 -0.542,0.053 -0.569,0 -1.112,-0.163 -1.6,-0.434 L 68.312,24.814 c -0.977,-0.597 -1.6,-1.682 -1.6,-2.848 V 9.979 c 0,-1.166 0.624,-2.277 1.6,-2.847 L 78.4,1.14 c 0.488,-0.299 1.031,-0.435 1.6,-0.435 0.569,0 1.111,0.163 1.6,0.435 l 10.089,5.993 c 0.84,0.488 1.383,1.355 1.545,2.305 -0.325,-0.706 -1.085,-0.895 -1.953,-0.38 z"
   id="path155" />
</g>
<g
   id="Git"
   transform="matrix(4.0000313,0,0,4.0000313,-5.0398435e-4,-7.960875e-6)">
	<path
   fill="#e60000"
   d="M 95.396,142.575 81.424,128.604 c -0.804,-0.805 -2.107,-0.806 -2.912,-0.002 -0.001,0.001 -0.001,0.001 -0.002,0.002 l -2.901,2.901 3.68,3.68 c 0.882,-0.3 1.858,-0.072 2.518,0.587 0.662,0.663 0.889,1.647 0.582,2.533 l 3.547,3.548 c 0.887,-0.309 1.871,-0.082 2.535,0.582 0.957,0.957 0.957,2.509 0,3.467 v 0 c -0.959,0.958 -2.512,0.958 -3.47,0 -0.7,-0.7 -0.911,-1.752 -0.534,-2.667 l -3.308,-3.308 v 8.704 c 1.214,0.6 1.712,2.07 1.112,3.284 -0.119,0.24 -0.275,0.459 -0.465,0.648 -0.957,0.957 -2.51,0.957 -3.467,0 0,0 0,0 -0.001,0 -0.957,-0.958 -0.958,-2.511 0,-3.468 v -0.001 c 0.23,-0.229 0.504,-0.412 0.805,-0.536 v -8.784 c -0.301,-0.123 -0.574,-0.305 -0.805,-0.535 -0.703,-0.704 -0.911,-1.763 -0.527,-2.681 l -3.628,-3.628 -9.58,9.578 c -0.805,0.805 -0.805,2.109 0,2.914 0,0 0,0 0,0.001 l 13.973,13.972 c 0.805,0.805 2.109,0.805 2.914,0 l 13.906,-13.906 c 0.805,-0.804 0.805,-2.109 0,-2.914"
   id="path158" />
</g>
<g
   id="Ollama"
   transform="matrix(3.9997931,0,0,3.9997931,-15.575737,0.01986184)">
	<g
   id="g171">
		<path
   d="m 9.165,64.01 c -0.299,0.048 -0.657,0.204 -0.91,0.397 -0.765,0.581 -1.357,1.815 -1.608,3.352 -0.094,0.582 -0.158,1.388 -0.158,2.004 0,0.726 0.085,1.654 0.207,2.295 0.027,0.143 0.041,0.27 0.029,0.278 -0.009,0.009 -0.122,0.101 -0.248,0.202 -0.432,0.345 -0.926,0.875 -1.266,1.36 -0.652,0.926 -1.075,1.978 -1.253,3.117 -0.068,0.45 -0.087,1.36 -0.031,1.811 0.121,1.039 0.434,1.916 0.969,2.721 l 0.175,0.26 -0.051,0.085 c -0.358,0.602 -0.664,1.473 -0.806,2.309 -0.113,0.662 -0.127,0.839 -0.127,1.726 0,0.894 0.012,1.07 0.117,1.688 0.127,0.739 0.384,1.523 0.671,2.045 0.095,0.17 0.324,0.523 0.352,0.542 0.01,0.005 -0.019,0.09 -0.062,0.188 -0.331,0.724 -0.614,1.687 -0.73,2.497 -0.083,0.557 -0.095,0.735 -0.095,1.321 0,0.747 0.042,1.109 0.198,1.705 L 4.561,96 H 5.544 6.529 L 6.466,95.879 C 6.069,95.144 6.031,93.778 6.373,92.416 6.529,91.786 6.707,91.324 7.037,90.688 L 7.235,90.302 V 90.065 C 7.235,89.845 7.23,89.82 7.159,89.675 7.103,89.564 7.03,89.47 6.899,89.341 6.676,89.125 6.515,88.898 6.386,88.617 5.822,87.39 5.711,85.568 6.109,84.015 6.274,83.367 6.547,82.79 6.835,82.476 7.03,82.259 7.132,82.018 7.132,81.768 7.132,81.508 7.04,81.294 6.833,81.072 6.24,80.438 5.875,79.666 5.744,78.767 5.557,77.488 5.895,76.093 6.663,74.988 c 0.751,-1.084 1.806,-1.78 2.984,-1.967 0.264,-0.043 0.758,-0.036 1.033,0.014 0.302,0.053 0.49,0.037 0.683,-0.055 0.239,-0.112 0.358,-0.253 0.499,-0.574 0.124,-0.287 0.22,-0.443 0.479,-0.768 0.313,-0.389 0.613,-0.652 1.096,-0.972 0.552,-0.361 1.179,-0.623 1.804,-0.749 0.228,-0.046 0.333,-0.053 0.759,-0.053 0.425,0 0.531,0.007 0.758,0.053 0.917,0.186 1.827,0.659 2.553,1.33 0.156,0.145 0.531,0.609 0.65,0.802 0.046,0.076 0.127,0.237 0.177,0.356 0.141,0.321 0.26,0.462 0.499,0.574 0.186,0.089 0.381,0.107 0.671,0.06 0.457,-0.078 0.809,-0.071 1.257,0.021 1.525,0.308 2.854,1.564 3.441,3.249 0.513,1.478 0.368,3.023 -0.395,4.204 -0.129,0.2 -0.257,0.36 -0.443,0.559 -0.402,0.43 -0.402,0.963 -0.003,1.403 0.657,0.719 1.068,2.488 0.944,4.048 -0.083,1.029 -0.347,1.951 -0.71,2.473 -0.064,0.092 -0.197,0.248 -0.299,0.345 -0.13,0.129 -0.204,0.223 -0.259,0.333 -0.071,0.145 -0.076,0.17 -0.076,0.391 v 0.237 l 0.197,0.386 c 0.331,0.636 0.508,1.098 0.664,1.728 0.338,1.344 0.308,2.682 -0.078,3.441 -0.032,0.064 -0.06,0.124 -0.06,0.131 0,0.007 0.44,0.012 0.978,0.012 h 0.974 l 0.026,-0.099 c 0.014,-0.054 0.036,-0.134 0.047,-0.18 0.026,-0.101 0.076,-0.399 0.117,-0.687 0.039,-0.29 0.039,-1.356 0,-1.678 -0.146,-1.167 -0.392,-2.093 -0.794,-2.969 -0.044,-0.099 -0.071,-0.184 -0.063,-0.188 0.012,-0.007 0.076,-0.1 0.145,-0.202 0.501,-0.759 0.809,-1.712 0.965,-2.971 0.042,-0.348 0.042,-1.839 0,-2.172 -0.11,-0.859 -0.243,-1.442 -0.464,-2.033 -0.092,-0.246 -0.335,-0.765 -0.438,-0.933 l -0.051,-0.085 0.175,-0.26 c 0.535,-0.805 0.848,-1.682 0.97,-2.721 0.055,-0.45 0.036,-1.359 -0.032,-1.81 -0.18,-1.143 -0.6,-2.19 -1.252,-3.118 -0.34,-0.484 -0.835,-1.016 -1.267,-1.36 -0.126,-0.101 -0.239,-0.192 -0.248,-0.202 -0.012,-0.009 0.003,-0.136 0.03,-0.277 0.277,-1.45 0.269,-3.259 -0.023,-4.672 -0.253,-1.23 -0.712,-2.21 -1.305,-2.774 -0.474,-0.45 -0.956,-0.644 -1.535,-0.606 -1.328,0.078 -2.399,1.605 -2.821,4.014 -0.069,0.388 -0.129,0.843 -0.129,0.967 0,0.048 -0.01,0.087 -0.021,0.087 -0.012,0 -0.102,-0.046 -0.198,-0.104 -1.024,-0.606 -2.164,-0.93 -3.274,-0.93 -1.109,0 -2.249,0.323 -3.273,0.93 -0.097,0.058 -0.187,0.104 -0.197,0.104 -0.012,0 -0.021,-0.039 -0.021,-0.087 0,-0.129 -0.062,-0.598 -0.129,-0.967 C 11.997,65.855 11.116,64.423 9.947,64.063 9.785,64.017 9.328,63.984 9.165,64.01 Z m 0.391,1.87 c 0.331,0.262 0.698,1.011 0.91,1.85 0.038,0.151 0.08,0.326 0.092,0.391 0.009,0.063 0.034,0.202 0.055,0.31 0.09,0.487 0.131,1.014 0.136,1.654 l 0.002,0.632 -0.158,0.234 -0.158,0.237 h -0.37 c -0.432,0 -0.861,0.055 -1.272,0.165 C 8.646,71.39 8.503,71.426 8.476,71.434 8.432,71.443 8.425,71.429 8.4,71.241 8.265,70.219 8.272,69.086 8.421,68.143 8.586,67.093 8.972,66.142 9.349,65.862 9.437,65.795 9.452,65.797 9.556,65.88 Z m 13.1,-0.016 c 0.228,0.167 0.479,0.613 0.664,1.183 0.375,1.14 0.48,2.704 0.283,4.193 -0.025,0.188 -0.033,0.202 -0.076,0.193 -0.027,-0.008 -0.17,-0.044 -0.317,-0.081 -0.411,-0.11 -0.841,-0.165 -1.272,-0.165 h -0.371 l -0.158,-0.237 -0.158,-0.234 0.002,-0.632 c 0.005,-0.891 0.088,-1.587 0.285,-2.361 0.21,-0.832 0.58,-1.581 0.908,-1.843 0.103,-0.083 0.118,-0.085 0.21,-0.016 z"
   id="path161" />
		<path
   d="m 15.644,77.428 c -0.498,0.048 -0.634,0.066 -0.873,0.114 -0.388,0.081 -0.907,0.26 -1.269,0.437 -1.254,0.613 -2.118,1.636 -2.382,2.819 -0.053,0.234 -0.06,0.313 -0.06,0.707 0,0.392 0.007,0.476 0.057,0.699 0.352,1.546 1.776,2.688 3.619,2.896 0.399,0.044 2.128,0.044 2.527,0 1.479,-0.167 2.753,-0.97 3.324,-2.095 0.151,-0.301 0.226,-0.497 0.295,-0.802 0.05,-0.224 0.057,-0.308 0.057,-0.699 0,-0.395 -0.007,-0.473 -0.06,-0.707 -0.384,-1.719 -2.052,-3.072 -4.097,-3.329 -0.264,-0.031 -0.964,-0.059 -1.138,-0.04 z m 0.86,1.249 c 0.682,0.074 1.369,0.317 1.921,0.686 0.296,0.197 0.714,0.61 0.894,0.882 0.221,0.336 0.347,0.678 0.404,1.094 0.025,0.19 0.011,0.336 -0.058,0.644 -0.108,0.459 -0.443,0.939 -0.896,1.274 -0.212,0.154 -0.651,0.377 -0.919,0.464 -0.511,0.163 -0.844,0.193 -2.034,0.185 -0.776,-0.008 -0.915,-0.015 -1.138,-0.056 -0.761,-0.143 -1.362,-0.445 -1.799,-0.907 -0.354,-0.372 -0.515,-0.712 -0.602,-1.262 -0.039,-0.255 0.034,-0.678 0.184,-1.034 0.182,-0.434 0.65,-0.974 1.114,-1.284 0.537,-0.358 1.245,-0.613 1.896,-0.682 0.251,-0.029 0.781,-0.029 1.033,-0.004 z"
   id="path163" />
		<path
   d="m 15.122,80.354 c -0.175,0.094 -0.297,0.333 -0.26,0.51 0.042,0.19 0.209,0.384 0.472,0.542 0.14,0.085 0.148,0.097 0.156,0.182 0.004,0.051 -0.014,0.196 -0.039,0.325 -0.027,0.126 -0.049,0.259 -0.049,0.296 0.003,0.099 0.095,0.259 0.191,0.338 0.085,0.068 0.101,0.071 0.34,0.078 0.218,0.007 0.265,0.002 0.352,-0.039 0.226,-0.11 0.282,-0.313 0.2,-0.701 -0.069,-0.323 -0.056,-0.374 0.117,-0.474 0.182,-0.105 0.375,-0.291 0.432,-0.418 0.11,-0.241 0.01,-0.515 -0.234,-0.641 -0.06,-0.03 -0.133,-0.044 -0.241,-0.044 -0.168,0 -0.276,0.039 -0.474,0.165 l -0.112,0.071 -0.071,-0.043 c -0.292,-0.172 -0.345,-0.193 -0.521,-0.191 -0.128,0.001 -0.196,0.012 -0.259,0.044 z"
   id="path165" />
		<path
   d="m 9.544,77.687 c -0.406,0.129 -0.71,0.428 -0.866,0.853 -0.075,0.202 -0.112,0.521 -0.08,0.694 0.075,0.411 0.413,0.785 0.797,0.889 0.482,0.127 0.844,0.044 1.162,-0.273 0.187,-0.182 0.288,-0.34 0.389,-0.598 0.073,-0.181 0.078,-0.213 0.078,-0.471 L 11.026,78.506 10.93,78.308 C 10.776,77.995 10.497,77.764 10.176,77.679 9.994,77.632 9.702,77.634 9.544,77.687 Z"
   id="path167" />
		<path
   d="m 21.815,77.68 c -0.314,0.086 -0.596,0.319 -0.745,0.628 l -0.096,0.197 0.002,0.276 c 0,0.257 0.005,0.289 0.078,0.471 0.101,0.257 0.202,0.416 0.389,0.598 0.319,0.316 0.68,0.399 1.162,0.273 0.278,-0.073 0.557,-0.308 0.689,-0.581 0.115,-0.232 0.143,-0.4 0.105,-0.664 -0.084,-0.604 -0.438,-1.043 -0.965,-1.197 -0.152,-0.047 -0.452,-0.047 -0.619,-10e-4 z"
   id="path169" />
	</g>
</g>
<g
   id="Python"
   transform="matrix(3.9999382,0,0,3.9999382,0.7121156,0.00498231)">
	<path
   id="path1948"
   fill="#7df9ff"
   d="m 143.812,64 c -1.306,0.006 -2.552,0.117 -3.647,0.312 -3.231,0.57 -3.818,1.765 -3.818,3.968 v 2.91 h 7.635 v 0.97 h -7.635 -2.864 c -2.219,0 -4.161,1.333 -4.77,3.871 -0.7,2.908 -0.731,4.722 0,7.758 0.542,2.261 1.839,3.87 4.058,3.87 h 2.625 v -3.487 c 0,-2.52 2.18,-4.742 4.77,-4.742 h 7.625 c 2.122,0 3.816,-1.748 3.816,-3.879 v -7.27 c 0,-2.069 -1.744,-3.623 -3.816,-3.968 -1.314,-0.22 -2.675,-0.319 -3.979,-0.313 z m -4.129,2.34 c 0.788,0 1.433,0.655 1.433,1.459 0,0.802 -0.645,1.45 -1.433,1.45 -0.792,0 -1.433,-0.648 -1.433,-1.45 0,-0.804 0.641,-1.459 1.433,-1.459 z" />
	<path
   id="path1950"
   fill="#7df9ff"
   d="m 152.559,72.159 v 3.39 c 0,2.628 -2.229,4.84 -4.77,4.84 h -7.626 c -2.089,0 -3.817,1.789 -3.817,3.879 v 7.27 c 0,2.069 1.799,3.286 3.817,3.88 2.417,0.711 4.733,0.839 7.626,0 1.922,-0.557 3.816,-1.677 3.816,-3.88 v -2.909 h -7.625 v -0.971 h 7.625 3.817 c 2.219,0 3.046,-1.547 3.817,-3.87 0.797,-2.391 0.764,-4.69 0,-7.758 -0.548,-2.208 -1.596,-3.871 -3.817,-3.871 z m -4.289,18.409 c 0.791,0 1.432,0.648 1.432,1.45 0,0.805 -0.641,1.459 -1.432,1.459 -0.789,0 -1.433,-0.654 -1.433,-1.459 0,-0.801 0.643,-1.45 1.433,-1.45 z" />
</g>
<g
   id="Calendar"
   transform="matrix(3.9999503,0,0,4.0000003,0.00196315,-1.185e-5)">
	<path
   opacity="0.5"
   fill="none"
   stroke="#ffbf00"
   stroke-miterlimit="10"
   d="M 111.233,120 H 48.766 C 43.926,120 40,116.073 40,111.233 V 48.768 C 40,43.926 43.926,40 48.766,40 h 62.468 c 4.838,0 8.767,3.926 8.767,8.768 v 62.466 c 0,4.839 -3.929,8.766 -8.768,8.766 z"
   id="path177" />
	<path
   opacity="0.5"
   fill="none"
   stroke="#ffbf00"
   stroke-miterlimit="10"
   d="M 111.233,40 H 48.766 C 43.926,40 40,43.926 40,48.768 v 13.953 h 80.001 V 48.768 c 0,-4.842 -3.929,-8.768 -8.768,-8.768 z"
   id="path179" />
	<rect
   x="50.452999"
   y="68.144997"
   opacity="0.5"
   fill="none"
   stroke="#ffbf00"
   stroke-miterlimit="10"
   width="11.856"
   height="11.855"
   id="rect181" />
	<rect
   x="65.792999"
   y="68.144997"
   opacity="0.5"
   fill="none"
   stroke="#ffbf00"
   stroke-miterlimit="10"
   width="11.856"
   height="11.855"
   id="rect183" />
	<rect
   x="81.120003"
   y="68.144997"
   opacity="0.5"
   fill="none"
   stroke="#ffbf00"
   stroke-miterlimit="10"
   width="11.856"
   height="11.855"
   id="rect185" />
	<rect
   x="96.460999"
   y="68.144997"
   opacity="0.5"
   fill="none"
   stroke="#ffbf00"
   stroke-miterlimit="10"
   width="11.854"
   height="11.855"
   id="rect187" />
	<rect
   x="50.452999"
   y="82.980003"
   opacity="0.5"
   fill="none"
   stroke="#ffbf00"
   stroke-miterlimit="10"
   width="11.856"
   height="11.856"
   id="rect189" />
	<rect
   x="65.792999"
   y="82.980003"
   opacity="0.5"
   fill="none"
   stroke="#ffbf00"
   stroke-miterlimit="10"
   width="11.856"
   height="11.856"
   id="rect191" />
	<rect
   x="81.120003"
   y="82.980003"
   opacity="0.5"
   fill="none"
   stroke="#ffbf00"
   stroke-miterlimit="10"
   width="11.856"
   height="11.856"
   id="rect193" />
	<rect
   x="96.460999"
   y="82.980003"
   opacity="0.5"
   fill="none"
   stroke="#ffbf00"
   stroke-miterlimit="10"
   width="11.854"
   height="11.856"
   id="rect195" />
</g>
<g
   id="JSON"
   transform="matrix(3.9999503,0,0,4.0000003,0.00396313,-1.185e-5)">
	<g
   opacity="0.5"
   id="g202">
		<path
   fill="#ffffff"
   d="M 79.939,97.594 C 95.868,119.311 111.457,91.532 111.435,74.831 111.407,55.082 91.391,44.045 79.927,44.045 61.524,44.044 44,59.252 44,80.06 44,103.189 64.088,116 79.926,116 76.342,115.484 64.399,112.924 64.238,85.414 64.13,66.808 70.307,59.375 79.9,62.645 c 0.215,0.08 10.582,4.169 10.582,17.528 -0.001,13.304 -10.543,17.421 -10.543,17.421 z"
   id="path198" />
		<path
   fill="#ffffff"
   d="M 79.92,62.63 C 69.395,59.002 56.5,67.678 56.5,85.054 56.5,113.425 77.525,116 80.074,116 98.476,116 116,100.792 116,79.984 116,56.856 95.911,44.045 80.074,44.045 c 4.386,-0.608 23.644,4.747 23.644,31.066 0,17.165 -14.379,26.507 -23.73,22.514 C 79.772,97.547 69.406,93.456 69.406,80.098 69.405,66.796 79.92,62.63 79.92,62.63 Z"
   id="path200" />
	</g>
	<g
   opacity="0.5"
   id="g218">
		
			<linearGradient
   id="SVGID_1_"
   gradientUnits="userSpaceOnUse"
   x1="-643.53473"
   y1="-308.11771"
   x2="-592.75128"
   y2="-358.9101"
   gradientTransform="matrix(0.9988,0,0,-0.9987,696.7642,-252.4194)">
			<stop
   offset="0"
   style="stop-color:#FFBF00"
   id="stop204" />
			<stop
   offset="1"
   style="stop-color:#FFFFFF"
   id="stop206" />
		</linearGradient>
		<path
   fill="url(#SVGID_1_)"
   d="M 79.939,97.594 C 95.868,119.311 111.457,91.532 111.435,74.831 111.407,55.082 91.391,44.045 79.927,44.045 61.524,44.044 44,59.252 44,80.06 44,103.189 64.088,116 79.926,116 76.342,115.484 64.399,112.924 64.238,85.414 64.13,66.808 70.307,59.375 79.9,62.645 c 0.215,0.08 10.582,4.169 10.582,17.528 -0.001,13.304 -10.543,17.421 -10.543,17.421 z"
   id="path209"
   style="fill:url(#SVGID_1_)" />
		
			<linearGradient
   id="SVGID_2_"
   gradientUnits="userSpaceOnUse"
   x1="-590.45209"
   y1="-356.6084"
   x2="-641.2356"
   y2="-305.8205"
   gradientTransform="matrix(0.9988,0,0,-0.9987,696.7642,-252.4194)">
			<stop
   offset="0"
   style="stop-color:#FFBF00"
   id="stop211" />
			<stop
   offset="1"
   style="stop-color:#FFFFFF"
   id="stop213" />
		</linearGradient>
		<path
   fill="url(#SVGID_2_)"
   d="M 79.92,62.63 C 69.395,59.002 56.5,67.678 56.5,85.054 56.5,113.425 77.525,116 80.074,116 98.476,116 116,100.792 116,79.984 116,56.856 95.911,44.045 80.074,44.045 c 4.386,-0.608 23.644,4.747 23.644,31.066 0,17.165 -14.379,26.507 -23.73,22.514 C 79.772,97.547 69.406,93.456 69.406,80.098 69.405,66.796 79.92,62.63 79.92,62.63 Z"
   id="path216"
   style="fill:url(#SVGID_2_)" />
	</g>
</g>
<g
   id="Text"
   transform="matrix(3.9999503,0,0,4.0000003,-24.383734,-1.185e-5)">
	<g
   id="g255">
		<path
   fill="#ffbf00"
   d="m 83.73,100.572 h -0.576 l -0.205,1.134 h 0.576 l -0.096,0.582 h -0.582 l -0.203,1.128 H 81.93 l 0.198,-1.128 h -0.847 l -0.197,1.128 h -0.732 l 0.204,-1.128 h -0.582 l 0.102,-0.582 h 0.582 l 0.204,-1.134 H 80.28 l 0.096,-0.576 h 0.588 l 0.198,-1.122 h 0.726 l -0.198,1.122 h 0.846 l 0.199,-1.122 h 0.72 l -0.198,1.122 h 0.576 z m -1.5,1.134 0.203,-1.134 h -0.846 l -0.204,1.134 z"
   id="path221" />
		<path
   fill="#ffbf00"
   d="m 88.176,102.049 -0.084,0.545 h -3.643 l -0.174,-0.545 z m 1.433,-2.16 h -3.72 l -0.245,0.846 h 3.317 c 0.124,0 0.207,0.031 0.249,0.096 0.042,0.065 0.053,0.174 0.033,0.33 -0.172,1.268 -0.305,2.184 -0.396,2.748 h -2.046 l -0.174,-0.559 h 1.56 c 0.024,-0.115 0.055,-0.277 0.09,-0.485 0.037,-0.208 0.074,-0.452 0.114,-0.731 0.04,-0.281 0.074,-0.535 0.103,-0.763 0,-0.012 -0.002,-0.028 -0.004,-0.048 -0.002,-0.02 -0.022,-0.03 -0.063,-0.03 H 84.75 l 0.798,-2.784 h 0.737 l -0.239,0.834 h 3.647 z"
   id="path223" />
		<path
   fill="#ffbf00"
   d="m 92.201,98.982 c 0.093,0 0.17,0.009 0.231,0.027 0.062,0.018 0.104,0.056 0.13,0.113 0.023,0.059 0.023,0.172 0,0.34 l -0.57,4.043 h -1.963 l 0.643,-4.523 z m -1.481,4.008 h 0.738 l 0.222,-1.536 h -0.744 z m 1.158,-3.492 h -0.666 l -0.204,1.439 h 0.744 l 0.191,-1.355 c 0.004,-0.031 0.002,-0.054 -0.009,-0.066 -0.009,-0.012 -0.028,-0.018 -0.056,-0.018 z m 3.996,0.055 -0.072,0.539 h -0.63 l -0.527,3.816 h -1.297 l -0.145,-0.54 h 0.859 l 0.461,-3.276 h -1.92 l 0.072,-0.539 h 1.926 l 0.145,-1.045 h 0.642 l -0.144,1.045 z m -1.944,3.101 h -0.708 c -0.06,-0.275 -0.157,-0.678 -0.294,-1.203 -0.136,-0.525 -0.212,-0.82 -0.229,-0.885 h 0.643 c 0.132,0.512 0.328,1.208 0.588,2.088 z"
   id="path225" />
		<path
   fill="#ffbf00"
   d="m 98.16,98.508 c -0.064,0.232 -0.15,0.475 -0.258,0.727 -0.108,0.252 -0.236,0.49 -0.385,0.714 l -0.527,3.96 h -0.666 l 0.438,-3.066 c -0.031,0.028 -0.091,0.078 -0.177,0.147 -0.087,0.069 -0.197,0.151 -0.333,0.243 l 0.145,-0.883 c 0.111,-0.1 0.223,-0.217 0.336,-0.354 0.111,-0.136 0.217,-0.283 0.314,-0.443 0.097,-0.16 0.188,-0.33 0.268,-0.508 0.079,-0.178 0.144,-0.357 0.191,-0.537 z m 2.73,2.85 c 0.181,0 0.293,0.032 0.339,0.099 0.047,0.066 0.055,0.191 0.027,0.375 l -0.307,2.076 h -3.317 l 0.384,-2.55 h 0.967 c 0.016,-0.028 0.043,-0.08 0.084,-0.156 0.039,-0.075 0.086,-0.174 0.137,-0.294 h 0.732 c -0.072,0.148 -0.156,0.298 -0.252,0.45 z m -1.344,-0.6 h -1.649 l 0.336,-2.25 h 0.629 l -0.096,0.631 h 1.086 l -0.078,0.504 h -1.086 l -0.09,0.611 h 1.141 z m -1.236,2.646 h 2.101 l 0.078,-0.534 h -2.094 z m 2.316,-1.452 c 0.004,-0.032 10e-4,-0.055 -0.009,-0.069 -0.01,-0.014 -0.029,-0.021 -0.058,-0.021 h -2.016 l -0.078,0.504 h 2.101 z m 1.145,-2.483 c -0.455,0.135 -0.869,0.242 -1.242,0.317 l -0.065,0.468 h 1.272 l -0.187,0.504 h -1.794 l 0.33,-2.25 h 0.624 l -0.108,0.762 c 0.232,-0.055 0.459,-0.116 0.682,-0.182 0.222,-0.066 0.408,-0.13 0.561,-0.189 z"
   id="path227" />
		<path
   fill="#ffbf00"
   d="m 104.736,99.906 c -0.209,0.396 -0.515,0.768 -0.918,1.115 l -0.433,2.887 h -0.69 l 0.367,-2.34 c -0.137,0.084 -0.283,0.163 -0.441,0.236 -0.158,0.074 -0.305,0.136 -0.441,0.184 l 0.162,-0.75 c 0.336,-0.137 0.654,-0.327 0.954,-0.573 0.3,-0.245 0.528,-0.499 0.685,-0.759 z m 0.174,-1.374 c -0.108,0.208 -0.246,0.403 -0.411,0.588 -0.166,0.185 -0.354,0.351 -0.564,0.501 -0.21,0.15 -0.437,0.283 -0.681,0.398 -0.244,0.117 -0.496,0.215 -0.756,0.295 l 0.162,-0.721 c 0.184,-0.056 0.375,-0.139 0.572,-0.248 0.198,-0.11 0.379,-0.238 0.541,-0.385 0.161,-0.146 0.288,-0.289 0.381,-0.429 h 0.756 z m 2.742,1.739 -0.084,0.559 h -0.738 l -0.438,3.078 h -1.416 l -0.168,-0.57 h 0.972 l 0.367,-2.508 h -1.471 l 0.09,-0.559 z m -0.031,-1.474 -0.077,0.557 h -2.466 l 0.084,-0.557 z"
   id="path229" />
		<path
   fill="#ffbf00"
   d="m 67.95,107.772 h -0.576 l -0.204,1.134 h 0.576 l -0.096,0.582 h -0.582 l -0.204,1.128 H 66.15 l 0.198,-1.128 h -0.846 l -0.198,1.128 h -0.732 l 0.204,-1.128 h -0.582 l 0.102,-0.582 h 0.582 l 0.204,-1.134 H 64.5 l 0.096,-0.576 h 0.588 l 0.198,-1.122 h 0.726 l -0.198,1.122 h 0.846 l 0.198,-1.122 h 0.72 l -0.198,1.122 h 0.576 z m -1.5,1.134 0.204,-1.134 h -0.846 l -0.204,1.134 z"
   id="path231" />
		<path
   fill="#ffbf00"
   d="m 71.778,106.074 -0.12,0.666 h -1.104 l -0.684,3.876 h -0.81 l 0.684,-3.876 h -1.11 l 0.12,-0.666 z"
   id="path233" />
		<path
   fill="#ffbf00"
   d="m 73.434,107.172 c 0.244,0 0.434,0.025 0.57,0.076 0.136,0.049 0.236,0.123 0.3,0.221 0.064,0.099 0.096,0.224 0.096,0.375 0,0.093 -0.008,0.181 -0.024,0.265 l -0.084,0.474 c -0.048,0.269 -0.13,0.455 -0.246,0.562 -0.116,0.106 -0.298,0.159 -0.546,0.159 h -1.32 l -0.03,0.186 c -0.021,0.112 -0.03,0.2 -0.03,0.264 0,0.101 0.032,0.168 0.096,0.205 0.064,0.035 0.184,0.053 0.36,0.053 h 1.206 l -0.246,0.606 h -1.104 c -0.144,0 -0.282,-0.009 -0.414,-0.026 -0.132,-0.019 -0.245,-0.051 -0.339,-0.097 -0.094,-0.046 -0.168,-0.112 -0.222,-0.2 -0.054,-0.088 -0.081,-0.209 -0.081,-0.36 0,-0.112 0.014,-0.253 0.042,-0.421 l 0.234,-1.344 c 0.04,-0.231 0.101,-0.42 0.183,-0.563 0.082,-0.143 0.207,-0.252 0.375,-0.324 0.168,-0.071 0.44,-0.108 0.816,-0.108 h 0.408 z m 0.198,0.936 c 0.012,-0.071 0.018,-0.124 0.018,-0.155 0,-0.068 -0.026,-0.115 -0.078,-0.142 -0.052,-0.026 -0.148,-0.039 -0.288,-0.039 h -0.426 c -0.112,0 -0.199,0.012 -0.261,0.036 -0.062,0.023 -0.109,0.068 -0.141,0.135 -0.032,0.066 -0.056,0.141 -0.072,0.225 l -0.096,0.553 h 1.02 c 0.08,0 0.14,-0.018 0.18,-0.051 0.04,-0.035 0.066,-0.092 0.078,-0.172 z"
   id="path235" />
		<path
   fill="#ffbf00"
   d="m 78.72,107.215 c 0.236,0 0.426,0.018 0.57,0.054 0.144,0.036 0.253,0.097 0.327,0.183 0.074,0.086 0.111,0.211 0.111,0.375 0,0.028 -0.003,0.084 -0.009,0.165 -0.006,0.082 -0.035,0.271 -0.087,0.567 l -0.36,2.058 h -0.744 l 0.366,-2.058 c 0.04,-0.225 0.06,-0.383 0.06,-0.475 0,-0.1 -0.026,-0.166 -0.078,-0.201 -0.052,-0.033 -0.15,-0.051 -0.294,-0.051 h -0.81 l -0.486,2.784 h -0.744 l 0.486,-2.784 h -1.152 l -0.486,2.784 h -0.744 l 0.594,-3.401 z"
   id="path237" />
		<path
   fill="#ffbf00"
   d="m 82.308,107.215 c 0.384,0 0.659,0.06 0.827,0.18 0.169,0.12 0.253,0.322 0.253,0.605 0,0.133 -0.026,0.347 -0.078,0.643 l -0.144,0.804 c -0.064,0.368 -0.147,0.628 -0.25,0.78 -0.102,0.152 -0.24,0.256 -0.414,0.313 -0.174,0.055 -0.418,0.084 -0.734,0.084 h -0.84 l -0.186,1.062 h -0.744 l 0.792,-4.47 h 1.518 z m 0.257,1.428 c 0.044,-0.236 0.065,-0.408 0.065,-0.516 0,-0.125 -0.037,-0.207 -0.11,-0.246 -0.074,-0.041 -0.211,-0.061 -0.411,-0.061 h -0.684 l -0.391,2.196 h 0.774 c 0.208,0 0.353,-0.037 0.433,-0.111 0.079,-0.073 0.139,-0.228 0.18,-0.459 z"
   id="path239" />
		<path
   fill="#ffbf00"
   d="m 86.453,107.215 h 0.744 l -0.6,3.401 H 84.91 c -0.235,0 -0.426,-0.018 -0.569,-0.054 -0.145,-0.036 -0.254,-0.098 -0.328,-0.184 -0.073,-0.086 -0.11,-0.211 -0.11,-0.375 0,-0.027 0.003,-0.082 0.009,-0.164 0.006,-0.082 0.035,-0.271 0.088,-0.567 l 0.359,-2.058 h 0.744 l -0.366,2.058 c -0.04,0.224 -0.06,0.382 -0.06,0.474 0,0.101 0.025,0.168 0.078,0.201 0.051,0.034 0.149,0.051 0.293,0.051 h 0.912 z"
   id="path241" />
		<path
   fill="#ffbf00"
   d="m 87.66,110.616 -0.108,-0.606 h 1.422 c 0.116,0 0.192,-0.016 0.231,-0.047 0.037,-0.032 0.066,-0.106 0.086,-0.223 l 0.055,-0.318 c 0.012,-0.06 0.018,-0.105 0.018,-0.138 0,-0.016 -0.006,-0.034 -0.018,-0.057 -0.012,-0.023 -0.066,-0.033 -0.162,-0.033 h -0.689 c -0.261,0 -0.442,-0.032 -0.547,-0.096 -0.104,-0.063 -0.156,-0.181 -0.156,-0.349 0,-0.111 0.021,-0.277 0.061,-0.498 l 0.048,-0.27 c 0.032,-0.176 0.066,-0.309 0.103,-0.396 0.035,-0.088 0.082,-0.158 0.138,-0.213 0.056,-0.054 0.136,-0.094 0.24,-0.119 0.104,-0.026 0.27,-0.039 0.497,-0.039 h 1.519 l -0.252,0.605 h -1.267 c -0.115,0 -0.192,0.016 -0.23,0.048 -0.038,0.032 -0.066,0.106 -0.087,0.222 l -0.048,0.271 c -0.012,0.06 -0.018,0.106 -0.018,0.138 0,0.017 0.006,0.035 0.018,0.057 0.012,0.023 0.066,0.033 0.162,0.033 h 0.72 c 0.261,0 0.442,0.033 0.546,0.097 0.104,0.064 0.156,0.18 0.156,0.348 0,0.112 -0.02,0.278 -0.061,0.498 l -0.065,0.378 c -0.028,0.16 -0.063,0.286 -0.104,0.379 -0.043,0.092 -0.095,0.158 -0.156,0.2 -0.063,0.042 -0.141,0.074 -0.237,0.097 -0.097,0.021 -0.263,0.032 -0.498,0.032 H 87.66 Z"
   id="path243" />
		<path
   fill="#ffbf00"
   d="m 92.412,110.616 -0.121,-0.666 h 1.531 c 0.155,0 0.26,-0.011 0.314,-0.032 0.054,-0.022 0.096,-0.059 0.126,-0.108 0.03,-0.049 0.062,-0.157 0.093,-0.321 l 0.061,-0.313 c 0.035,-0.18 0.054,-0.315 0.054,-0.407 0,-0.048 -0.015,-0.084 -0.045,-0.108 -0.03,-0.023 -0.115,-0.035 -0.255,-0.035 h -0.895 c -0.232,0 -0.398,-0.047 -0.498,-0.139 -0.1,-0.092 -0.15,-0.234 -0.15,-0.426 0,-0.1 0.019,-0.254 0.055,-0.462 l 0.113,-0.636 c 0.041,-0.229 0.096,-0.404 0.166,-0.528 0.07,-0.124 0.173,-0.216 0.309,-0.272 0.137,-0.059 0.348,-0.088 0.637,-0.088 h 1.775 l -0.275,0.66 h -1.459 c -0.088,0 -0.154,0.008 -0.201,0.023 -0.045,0.017 -0.082,0.048 -0.107,0.094 -0.026,0.046 -0.051,0.129 -0.075,0.249 l -0.071,0.372 c -0.033,0.168 -0.049,0.277 -0.049,0.33 0,0.035 0.016,0.066 0.045,0.093 0.03,0.026 0.1,0.039 0.207,0.039 h 0.768 c 0.32,0 0.539,0.041 0.658,0.123 0.117,0.082 0.177,0.215 0.177,0.399 0,0.071 -0.009,0.176 -0.027,0.314 -0.019,0.138 -0.035,0.249 -0.051,0.333 l -0.108,0.601 c -0.044,0.248 -0.111,0.437 -0.201,0.566 -0.09,0.129 -0.213,0.22 -0.371,0.27 -0.158,0.051 -0.401,0.075 -0.729,0.075 z"
   id="path245" />
		<path
   fill="#ffbf00"
   d="m 97.871,107.172 c 0.244,0 0.435,0.025 0.57,0.076 0.137,0.049 0.236,0.123 0.301,0.221 0.063,0.099 0.096,0.224 0.096,0.375 0,0.093 -0.008,0.181 -0.024,0.265 l -0.084,0.474 c -0.048,0.269 -0.13,0.455 -0.245,0.562 -0.117,0.106 -0.299,0.159 -0.547,0.159 h -1.32 l -0.029,0.186 c -0.021,0.112 -0.03,0.2 -0.03,0.264 0,0.101 0.032,0.168 0.097,0.205 0.063,0.035 0.184,0.053 0.359,0.053 h 1.206 l -0.246,0.606 h -1.104 c -0.144,0 -0.281,-0.009 -0.414,-0.026 -0.131,-0.019 -0.244,-0.051 -0.338,-0.097 -0.095,-0.046 -0.168,-0.112 -0.223,-0.2 -0.054,-0.088 -0.081,-0.209 -0.081,-0.36 0,-0.112 0.015,-0.253 0.042,-0.421 l 0.234,-1.344 c 0.039,-0.231 0.101,-0.42 0.183,-0.563 0.082,-0.143 0.207,-0.252 0.375,-0.324 0.168,-0.071 0.44,-0.108 0.816,-0.108 h 0.406 z m 0.199,0.936 c 0.012,-0.071 0.018,-0.124 0.018,-0.155 0,-0.068 -0.026,-0.115 -0.078,-0.142 -0.053,-0.026 -0.148,-0.039 -0.288,-0.039 h -0.427 c -0.111,0 -0.198,0.012 -0.26,0.036 -0.063,0.023 -0.109,0.068 -0.142,0.135 -0.033,0.067 -0.056,0.141 -0.071,0.225 l -0.097,0.553 h 1.021 c 0.08,0 0.14,-0.018 0.18,-0.051 0.04,-0.035 0.066,-0.092 0.078,-0.172 z"
   id="path247" />
		<path
   fill="#ffbf00"
   d="m 101.172,107.172 c 0.383,0 0.659,0.061 0.827,0.181 0.169,0.12 0.253,0.321 0.253,0.606 0,0.131 -0.027,0.346 -0.078,0.642 l -0.541,3.084 h -0.744 l 0.187,-1.068 h -0.834 c -0.384,0 -0.66,-0.06 -0.828,-0.18 -0.168,-0.12 -0.252,-0.322 -0.252,-0.606 0,-0.132 0.026,-0.346 0.078,-0.642 l 0.149,-0.84 c 0.045,-0.248 0.096,-0.447 0.154,-0.597 0.057,-0.15 0.137,-0.268 0.236,-0.352 0.099,-0.084 0.23,-0.143 0.391,-0.177 0.159,-0.034 0.367,-0.052 0.623,-0.052 h 0.379 z m 0.258,1.422 c 0.047,-0.26 0.072,-0.432 0.072,-0.516 0,-0.123 -0.037,-0.205 -0.111,-0.246 -0.074,-0.039 -0.211,-0.06 -0.412,-0.06 h -0.233 c -0.112,0 -0.208,0.011 -0.288,0.032 -0.08,0.023 -0.145,0.068 -0.195,0.136 -0.049,0.067 -0.092,0.204 -0.129,0.408 l -0.149,0.84 c -0.048,0.256 -0.072,0.429 -0.072,0.517 0,0.123 0.037,0.205 0.111,0.245 0.073,0.04 0.211,0.06 0.411,0.06 h 0.75 z"
   id="path249" />
		<path
   fill="#ffbf00"
   d="m 105.348,107.215 h 0.744 l -0.601,3.401 h -1.687 c -0.235,0 -0.426,-0.018 -0.569,-0.054 -0.143,-0.036 -0.253,-0.098 -0.327,-0.184 -0.074,-0.086 -0.111,-0.211 -0.111,-0.375 0,-0.027 0.004,-0.082 0.01,-0.164 0.006,-0.082 0.035,-0.271 0.087,-0.567 l 0.36,-2.058 h 0.744 l -0.367,2.058 c -0.039,0.224 -0.06,0.382 -0.06,0.474 0,0.101 0.026,0.168 0.078,0.201 0.052,0.034 0.149,0.051 0.294,0.051 h 0.912 z"
   id="path251" />
		<path
   fill="#ffbf00"
   d="m 106.416,110.616 0.594,-3.401 h 0.744 l -0.594,3.401 z m 0.678,-3.96 0.138,-0.768 H 108 l -0.139,0.768 z"
   id="path253" />
	</g>
	<g
   id="g257">
	</g>
	<g
   id="g259">
	</g>
	<g
   id="g261">
	</g>
	<g
   id="g263">
	</g>
	<g
   id="g265">
	</g>
	<g
   id="g267">
	</g>
</g>
</svg>
